<svg width="358" height="218" viewBox="0 0 358 218" fill="none" xmlns="http://www.w3.org/2000/svg">
    <path d="M350.659 60.6441H278.175C274.629 60.6441 271.709 57.9491 271.709 54.5681V14.8778C271.709 11.5458 274.577 8.80176 278.175 8.80176H350.659C354.205 8.80176 357.126 11.4968 357.126 14.8778V54.5681C357.074 57.9491 354.205 60.6441 350.659 60.6441Z" fill="#2847E0"/>
    <path d="M133.571 58.0959H55.2976C51.3866 58.0959 48.2056 55.1069 48.2056 51.4319V7.18456C48.2056 3.50953 51.3866 0.520508 55.2976 0.520508H133.571C137.482 0.520508 140.663 3.50953 140.663 7.18456V51.4319C140.663 55.1069 137.482 58.0959 133.571 58.0959Z" fill="#172D51"/>
    <path d="M85.6994 128.411H7.47862C3.56758 128.411 0.386597 125.422 0.386597 121.747V77.206C0.386597 73.531 3.56758 70.542 7.47862 70.542H85.6994C89.6105 70.542 92.7915 73.531 92.7915 77.206V121.747C92.7915 125.471 89.6105 128.411 85.6994 128.411Z" fill="#0056EB"/>
    <path fill-rule="evenodd" clip-rule="evenodd" d="M208.454 139.632C208.193 138.603 208.141 137.231 208.141 135.32C205.064 135.369 205.273 139.632 208.245 139.632H208.454ZM208.089 133.801H218.675C218.675 138.505 218.727 140.612 216.902 141.592H209.862C209.341 141.298 208.923 140.906 208.715 140.318H208.245C204.387 140.318 204.178 134.781 208.141 134.585L208.089 133.801Z" fill="#4C4C4C"/>
    <path d="M46.8498 160.507V172.463C53.8376 175.697 72.402 171.826 72.402 171.826L86.8989 169.425L87.8376 205.342L87.8897 207.253L87.994 211.957L88.0983 216.906H109.166C109.114 214.652 106.246 212.937 103.899 212.006C103.012 211.663 102.178 211.418 101.552 211.32C99.4142 210.928 98.9449 207.351 98.9449 207.351V207.253L99.1535 205.342L103.273 171.826L111.773 178.735L112.66 177.069L115.58 179.421L115.632 179.47L119.126 182.312L123.402 185.791L137.012 170.748C135.344 168.984 132.267 169.523 129.451 170.601C126.218 171.826 123.298 173.786 123.298 173.786L121.212 171.581L121.055 171.434L118.083 168.347L92.7394 141.74L46.8498 160.507Z" fill="#191919"/>
    <path d="M118.187 168.347L112.712 177.069L115.684 179.47L121.107 171.434L118.187 168.347Z" fill="#FAA895"/>
    <path d="M87.7854 205.342L87.8376 207.253H98.997L99.2056 205.342H87.7854Z" fill="#FAA895"/>
    <path d="M87.9417 211.957L88.046 216.906H109.166C109.114 214.652 106.245 212.937 103.899 212.006C101.656 212.545 98.3712 213.623 98.3712 215.289H91.957C91.957 215.289 90.5491 212.349 87.9417 211.957Z" fill="#6B3903"/>
    <path d="M119.491 182.557L123.558 185.694L137.273 170.895C131.38 168.053 127.626 176.04 128.929 177.412L124.758 181.92C124.706 181.92 121.472 180.989 119.491 182.557Z" fill="#6B3903"/>
    <path d="M69.7424 149.089C70.1596 148.648 71.0982 140.22 70.7332 139.681" stroke="black" stroke-width="0.88" stroke-miterlimit="10"/>
    <path d="M63.6462 97.4064H15.3989C13.7786 97.4064 13.181 96.7635 13.181 95.992C13.181 95.2205 13.7786 94.5776 15.3989 94.5776H63.6462C65.2664 94.5776 65.864 95.2205 65.864 95.992C65.864 96.7635 65.2664 97.4064 63.6462 97.4064Z" fill="#BDC3D3" fill-opacity="0.66"/>
    <path d="M63.6462 103.064H15.3989C13.7786 103.064 13.181 102.421 13.181 101.65C13.181 100.878 13.7786 100.235 15.3989 100.235H63.6462C65.2664 100.235 65.864 100.878 65.864 101.65C65.864 102.421 65.2664 103.064 63.6462 103.064Z" fill="#BDC3D3" fill-opacity="0.66"/>
    <path d="M63.6462 109.429H15.3989C13.7786 109.429 13.181 108.786 13.181 108.014C13.181 107.243 13.7786 106.6 15.3989 106.6H63.6462C65.2664 106.6 65.864 107.243 65.864 108.014C65.864 108.786 65.2664 109.429 63.6462 109.429Z" fill="#BDC3D3" fill-opacity="0.66"/>
    <path d="M69.4817 216.857C71.3537 216.857 72.8713 215.431 72.8713 213.672C72.8713 211.913 71.3537 210.487 69.4817 210.487C67.6097 210.487 66.0921 211.913 66.0921 213.672C66.0921 215.431 67.6097 216.857 69.4817 216.857Z" fill="#6B3903"/>
    <path d="M61.1903 216.857C63.0623 216.857 64.5799 215.431 64.5799 213.672C64.5799 211.913 63.0623 210.487 61.1903 210.487C59.3183 210.487 57.8007 211.913 57.8007 213.672C57.8007 215.431 59.3183 216.857 61.1903 216.857Z" fill="#6B3903"/>
    <path d="M52.8988 216.857C54.7708 216.857 56.2884 215.431 56.2884 213.672C56.2884 211.913 54.7708 210.487 52.8988 210.487C51.0268 210.487 49.5093 211.913 49.5093 213.672C49.5093 215.431 51.0268 216.857 52.8988 216.857Z" fill="#6B3903"/>
    <path d="M44.6595 216.857C46.5315 216.857 48.0491 215.431 48.0491 213.672C48.0491 211.913 46.5315 210.487 44.6595 210.487C42.7875 210.487 41.27 211.913 41.27 213.672C41.27 215.431 42.7875 216.857 44.6595 216.857Z" fill="#6B3903"/>
    <path d="M78.1902 180.744L74.9049 182.753H60.408V207.498H71.4632V210.536H42.7823V207.498H53.9939V182.459H39.862L36.9939 180.744H78.1902Z" fill="#331A02"/>
    <path d="M36.9939 180.743H78.1902V176.921C78.1902 174.275 75.9479 172.168 73.1319 172.168H42.0522C39.2363 172.168 36.9939 174.275 36.9939 176.921V180.743Z" fill="#6B3903"/>
    <path d="M86.6902 130.616C89.9755 130.616 100.04 131.498 91.7485 120.13C91.8528 118.562 92.5828 113.907 88.7761 111.849C84.9693 109.791 86.3773 108.566 86.6902 107.586C87.0031 106.606 88.046 92.053 67.6565 92.935C65.5706 93.327 57.6442 94.699 58.3743 105.577C59.1043 116.455 59.1043 120.032 59.1043 120.032L86.6902 130.616Z" fill="#1F3542"/>
    <path d="M112.816 126.256C112.816 126.256 119.908 125.178 120.742 122.189C120.742 122.189 121.994 120.768 120.742 119.886C120.742 119.886 120.273 118.661 119.334 118.661C118.396 118.661 108.905 120.18 107.601 119.886C106.298 119.592 105.985 127.285 105.985 127.285L112.816 126.256Z" fill="#E08F82"/>
    <path d="M114.12 121.502L120.586 119.934" stroke="#BC5E63" stroke-miterlimit="10" stroke-linecap="round"/>
    <path d="M120.534 122.335C120.534 122.335 120.482 120.865 119.908 121.159C119.23 121.502 118.552 122.139 118.239 122.286C117.509 122.58 116.258 123.315 115.893 123.413" stroke="#BC5E63" stroke-miterlimit="10" stroke-linecap="round"/>
    <path d="M116.883 122.286C116.571 122.09 116.153 122.09 115.893 122.335C115.215 122.972 113.911 124.05 113.285 124.05C112.451 124.099 110.782 123.952 110.052 123.413C109.322 122.874 108.331 122.58 108.331 122.58C108.331 122.58 108.748 120.914 108.644 120.13C108.54 119.346 108.957 118.464 109.322 118.121C109.687 117.778 110.678 115.867 109.635 114.936C109.635 114.936 108.853 114.544 108.696 114.936C108.54 115.328 107.288 117.435 106.715 118.17C106.193 118.905 101.604 123.756 100.979 125.226C100.405 126.696 102.491 129.489 102.491 129.489L105.933 128.313C105.933 128.313 111.304 126.696 111.773 126.696C112.242 126.696 114.693 126.255 116.988 123.266C117.301 122.972 117.248 122.531 116.883 122.286Z" fill="#FAA895"/>
    <path d="M105.985 128.363C105.672 128.902 100.874 136.889 98.0584 141.691C95.1381 146.689 91.1228 145.611 89.4541 144.827C87.8897 144.092 80.224 137.281 79.2332 136.399C79.1811 136.35 79.1289 136.301 79.1289 136.301C77.0952 141.74 71.1504 140.074 71.1504 140.074C70.5247 143.406 72.4541 150.021 72.4541 150.021L46.902 160.458L51.5952 138.212H37.8284C33.7087 136.448 36.2118 131.156 36.2118 131.156C36.2118 131.156 45.7547 121.65 50.5523 118.759C55.3498 115.868 56.6535 116.211 56.6535 116.211C56.6535 116.211 74.0707 119.984 77.9817 120.033C81.8927 120.082 86.1688 126.06 86.1688 126.06L91.905 133.802L100.979 125.178C102.074 127.824 105.985 128.363 105.985 128.363Z" fill="#A0B5FF"/>
    <path d="M105.985 128.412C105.672 128.902 100.874 136.889 98.0583 141.74C95.138 146.738 91.1227 145.66 89.454 144.876C87.8896 144.141 80.2239 137.33 79.2331 136.448C80.0675 132.43 76.7301 130.617 76.7301 130.617C77.3037 129.637 79.6503 128.559 79.6503 128.559C79.6503 128.559 89.1411 140.025 90.3405 141.299C91.5399 142.573 93.3129 142.23 94.9294 141.397C96.4939 140.662 105.515 129 105.985 128.412Z" fill="#8CA5FF"/>
    <path d="M59.4693 131.155C59.4693 131.155 56.1841 134.144 58.3221 137.819L66.1442 149.138C66.1442 149.138 68.4387 149.383 68.543 142.18L68.8037 149.138C68.8037 149.138 70.1074 148.991 70.2638 147.129C70.4203 145.267 70.7332 139.73 70.7332 139.73C70.7332 139.73 67.6565 131.4 59.4693 131.155Z" fill="#FAA895"/>
    <path d="M59.4693 131.156L45.9632 130.617" stroke="black" stroke-miterlimit="10" stroke-linecap="round"/>
    <path d="M57.4879 127.823C57.4879 127.823 52.4296 129.195 51.2823 130.812" stroke="black" stroke-miterlimit="10" stroke-linecap="round"/>
    <path d="M41.6351 161.781H59.9909C63.3805 161.781 66.1443 159.184 66.1443 155.999V143.602C66.1443 140.417 63.3805 137.82 59.9909 137.82H41.6351C38.2455 137.82 35.4817 140.417 35.4817 143.602V155.95C35.4817 159.184 38.2455 161.781 41.6351 161.781Z" fill="#6B3903"/>
    <path d="M45.0247 159.282H48.675C51.3345 159.282 53.4204 157.273 53.4204 154.823C53.4204 152.324 51.2823 150.364 48.675 150.364H45.0247C42.3651 150.364 40.2793 152.373 40.2793 154.823C40.2271 157.273 42.3651 159.282 45.0247 159.282Z" fill="#824C17"/>
    <path d="M45.129 179.323C46.4326 179.323 47.4756 178.343 47.4756 177.118V155.754C47.4756 154.529 46.4326 153.549 45.129 153.549C43.8253 153.549 42.7823 154.529 42.7823 155.754V177.118C42.7823 178.343 43.8253 179.323 45.129 179.323Z" fill="#331A02"/>
    <path d="M77.9295 120.326C80.224 127.529 68.543 125.03 65.6227 123.413C62.7025 121.796 56.6534 116.259 56.6534 116.259C61.8681 116.014 62.9111 116.357 64.0583 116.896C65.2055 117.435 66.4571 117.386 66.9786 116.896C67.5522 116.406 67.8651 110.918 67.8651 110.918C63.9019 111.114 64.6841 109.497 64.6841 108.664C64.6841 107.782 65.6227 107.782 65.6227 107.782H66.5614C70.6289 107.782 69.7424 99.5498 69.7424 99.5498C77.3037 99.0598 78.7638 102.294 79.0246 106.165C79.546 114.691 73.9141 113.319 73.9141 113.319L73.497 118.464C76.1043 120.081 77.9295 120.326 77.9295 120.326Z" fill="#FAA895"/>
    <path d="M75.0614 103.96C75.0614 103.96 75.5307 106.41 76.3129 106.9C77.0952 107.341 75.8436 107.978 75.3743 107.978" stroke="#BC5E63" stroke-miterlimit="10" stroke-linecap="round"/>
    <path d="M76.4172 110.182C75.0614 110.623 74.3314 109.741 74.3314 109.741L77.6166 108.712C77.6166 108.712 78.0338 109.643 76.4172 110.182Z" fill="white"/>
    <path d="M69.8988 110.918C69.951 110.967 70.1074 111.163 70.3682 111.506C70.2639 111.408 70.2117 111.359 70.1596 111.261C70.0031 111.016 69.951 110.918 69.8988 110.918Z" fill="#F99895"/>
    <path d="M77.9296 120.326C74.5921 120.375 72.767 119.591 72.2455 119.444C71.724 119.297 72.6105 115.671 72.5584 114.789C72.5584 114.25 71.2025 112.437 70.4203 111.506C71.724 112.829 73.9663 113.319 73.9663 113.319L73.5492 118.464C76.1044 120.081 77.9296 120.326 77.9296 120.326Z" fill="#E08F82"/>
    <path d="M344.331 18.2007H328.526V28.8086H344.331V18.2007Z" fill="#93C9F9"/>
    <path d="M305.948 38.002H284.875V52.1459H305.948V38.002Z" fill="#93C9F9"/>
    <path d="M62.5551 7.59277H61.6468C57.741 7.59277 54.5748 10.759 54.5748 14.6648C54.5748 18.5705 57.741 21.7367 61.6468 21.7367H62.5552C66.4609 21.7367 69.6271 18.5705 69.6271 14.6648C69.6271 10.759 66.4609 7.59277 62.5551 7.59277Z" fill="#93C9F9"/>
    <path d="M336.805 13.2495H319.495V24.5647H336.805V13.2495Z" fill="#0098FF"/>
    <path d="M23.6964 81.274H14.5185C13.5799 81.274 12.7977 80.539 12.7977 79.657C12.7977 78.775 13.5799 78.04 14.5185 78.04H23.6964C24.6351 78.04 25.4173 78.775 25.4173 79.657C25.4173 80.539 24.6351 81.274 23.6964 81.274Z" fill="#A4BCFF"/>
    <path d="M37.2547 86.9083H14.4143C13.4756 86.9083 12.6934 86.1733 12.6934 85.2913C12.6934 84.4093 13.4756 83.6743 14.4143 83.6743H37.2026C38.1413 83.6743 38.9235 84.4093 38.9235 85.2913C38.9756 86.1733 38.1934 86.9083 37.2547 86.9083Z" fill="#5174F2"/>
    <path d="M105.04 42.9523H56.7926C55.1724 42.9523 54.5748 42.3094 54.5748 41.5379C54.5748 40.7664 55.1724 40.1235 56.7926 40.1235H105.04C106.66 40.1235 107.258 40.7664 107.258 41.5379C107.258 42.3094 106.66 42.9523 105.04 42.9523Z" fill="#BDC3D3" fill-opacity="0.66"/>
    <path d="M105.04 36.5876H56.7926C55.1724 36.5876 54.5748 35.9447 54.5748 35.1732C54.5748 34.4017 55.1724 33.7588 56.7926 33.7588H105.04C106.66 33.7588 107.258 34.4017 107.258 35.1732C107.258 35.9447 106.66 36.5876 105.04 36.5876Z" fill="#BDC3D3" fill-opacity="0.66"/>
    <path d="M105.04 48.6101H56.7926C55.1724 48.6101 54.5748 47.9671 54.5748 47.1957C54.5748 46.4242 55.1724 45.7812 56.7926 45.7812H105.04C106.66 45.7812 107.258 46.4242 107.258 47.1957C107.258 47.9671 106.66 48.6101 105.04 48.6101Z" fill="#BDC3D3" fill-opacity="0.66"/>
    <path d="M88.7876 30.9299H57.2402C56.1808 30.9299 54.5748 29.8048 54.5748 28.4547C54.5748 27.1046 56.1808 25.9795 57.2402 25.9795H88.7876C89.847 25.9795 91.4529 27.1046 91.4529 28.4547C91.4529 29.8048 89.847 30.9299 88.7876 30.9299Z" fill="#BDC3D3"/>
    <path d="M254.917 103.225H151.144C148.589 103.225 146.503 101.265 146.503 98.8639V38.5935C146.503 36.1924 148.589 34.2324 151.144 34.2324H254.917C257.472 34.2324 259.558 36.1924 259.558 38.5935V98.9129C259.558 101.314 257.472 103.225 254.917 103.225Z" fill="#DFE6F7"/>
    <path d="M181.084 49.2878H168.204C166.953 49.2878 165.962 48.3568 165.962 47.1807C165.962 46.0047 166.953 45.0737 168.204 45.0737H181.084C182.336 45.0737 183.327 46.0047 183.327 47.1807C183.327 48.3078 182.336 49.2878 181.084 49.2878Z" fill="#656D8B"/>
    <path d="M232.262 49.2878H219.382C218.13 49.2878 217.14 48.3568 217.14 47.1807C217.14 46.0047 218.13 45.0737 219.382 45.0737H232.262C233.514 45.0737 234.505 46.0047 234.505 47.1807C234.505 48.3078 233.514 49.2878 232.262 49.2878Z" fill="#656D8B"/>
    <path d="M202.087 89.2493V50.519C202.087 47.5061 202.253 47.1953 202.464 47.1953C202.674 47.1953 202.84 47.5061 202.84 50.519V89.2493C202.84 93.0126 202.674 93.1631 202.464 93.1631C202.262 93.1631 202.087 93.0126 202.087 89.2493Z" fill="#656D8B" fill-opacity="0.44"/>
    <path d="M189.121 61.3102H161.431C160.179 61.3102 159.188 60.3792 159.188 59.2032C159.188 58.0272 160.179 57.0962 161.431 57.0962H189.121C190.372 57.0962 191.363 58.0272 191.363 59.2032C191.363 60.3302 190.32 61.3102 189.121 61.3102Z" fill="#BDC4CF"/>
    <path d="M239.546 61.3102H211.856C210.604 61.3102 209.613 60.3792 209.613 59.2032C209.613 58.0272 210.604 57.0962 211.856 57.0962H239.546C240.797 57.0962 241.788 58.0272 241.788 59.2032C241.788 60.3302 240.745 61.3102 239.546 61.3102Z" fill="#BDC4CF"/>
    <path d="M239.546 69.0895H211.856C210.604 69.0895 209.613 68.1585 209.613 66.9825C209.613 65.8065 210.604 64.8755 211.856 64.8755H239.546C240.797 64.8755 241.788 65.8065 241.788 66.9825C241.788 68.1095 240.745 69.0895 239.546 69.0895Z" fill="#BDC4CF"/>
    <path d="M239.546 76.8688H211.856C210.604 76.8688 209.613 75.9378 209.613 74.7618C209.613 73.5858 210.604 72.6548 211.856 72.6548H239.546C240.797 72.6548 241.788 73.5858 241.788 74.7618C241.788 75.8888 240.745 76.8688 239.546 76.8688Z" fill="#BDC4CF"/>
    <path d="M189.121 76.8688H161.431C160.179 76.8688 159.188 75.9378 159.188 74.7618C159.188 73.5858 160.179 72.6548 161.431 72.6548H189.121C190.372 72.6548 191.363 73.5858 191.363 74.7618C191.363 75.8888 190.32 76.8688 189.121 76.8688Z" fill="#BDC4CF"/>
    <path d="M239.546 85.3551H211.856C210.604 85.3551 209.613 84.4241 209.613 83.2481C209.613 82.0721 210.604 81.1411 211.856 81.1411H239.546C240.797 81.1411 241.788 82.0721 241.788 83.2481C241.788 84.3751 240.745 85.3551 239.546 85.3551Z" fill="#BDC4CF"/>
    <path d="M189.121 69.0895H161.431C160.179 69.0895 159.188 68.1585 159.188 66.9825C159.188 65.8065 160.179 64.8755 161.431 64.8755H189.121C190.372 64.8755 191.363 65.8065 191.363 66.9825C191.363 68.1095 190.32 69.0895 189.121 69.0895Z" fill="#BDC4CF"/>
    <path d="M305.917 23.6981H284.85C283.911 23.6981 283.181 23.012 283.181 22.13C283.181 21.248 283.911 20.562 284.85 20.562H305.917C306.856 20.562 307.586 21.248 307.586 22.13C307.586 23.012 306.804 23.6981 305.917 23.6981Z" fill="#5174F2"/>
    <path d="M342.231 47.5994H321.164C320.225 47.5994 319.495 46.9134 319.495 46.0314C319.495 45.1494 320.225 44.4634 321.164 44.4634H342.231C343.17 44.4634 343.9 45.1494 343.9 46.0314C343.9 46.9134 343.118 47.5994 342.231 47.5994Z" fill="#5174F2"/>
    <path d="M342.231 52.4529H321.164C320.225 52.4529 319.495 51.7669 319.495 50.8849C319.495 50.0029 320.225 49.3169 321.164 49.3169H342.231C343.17 49.3169 343.9 50.0029 343.9 50.8849C343.9 51.7669 343.118 52.4529 342.231 52.4529Z" fill="#5174F2"/>
    <path d="M293.871 18.6502H284.693C283.755 18.6502 283.024 17.9642 283.024 17.0822C283.024 16.2002 283.755 15.5142 284.693 15.5142H293.871C294.81 15.5142 295.54 16.2002 295.54 17.0822C295.54 17.9642 294.81 18.6502 293.871 18.6502Z" fill="#A4BCFF"/>
    <path d="M341.631 42.5525H332.453C331.514 42.5525 330.784 41.8665 330.784 40.9845C330.784 40.1025 331.514 39.4165 332.453 39.4165H341.631C342.569 39.4165 343.299 40.1025 343.299 40.9845C343.299 41.8665 342.569 42.5525 341.631 42.5525Z" fill="#A4BCFF"/>
    <path d="M302.006 208.773C302.006 208.773 302.475 211.566 302.006 211.811C301.537 212.056 308.577 211.811 308.837 211.762C309.098 211.713 308.942 210.488 308.942 210.488L309.046 208.136L302.006 208.773Z" fill="#F8BAC1"/>
    <path d="M277.549 208.184L277.132 211.369L284.328 211.467L284.067 208.282L277.549 208.184Z" fill="#F8BAC1"/>
    <path d="M310.141 215.289V216.857L288.552 216.955C288.448 216.367 288.448 215.828 288.604 215.387C288.604 215.387 288.604 215.387 288.604 215.338C289.178 213.476 291.524 212.447 293.297 212.104C294.08 211.957 294.81 211.957 295.123 212.104C296.426 212.594 302.058 210.781 302.058 210.781C306.282 212.496 308.837 210.487 308.837 210.487C310.558 211.026 310.141 215.289 310.141 215.289Z" fill="#92CCFF"/>
    <path d="M310.141 215.387V216.857L288.552 216.955C288.448 216.367 288.448 215.828 288.604 215.387H310.141Z" fill="#111F72"/>
    <path d="M293.454 215.338H288.656C289.23 213.476 291.577 212.447 293.35 212.104L293.454 215.338Z" fill="#E1E6F9"/>
    <path d="M285.423 214.211V215.779L263.834 215.877C263.73 215.289 263.73 214.75 263.886 214.309C263.886 214.309 263.886 214.309 263.886 214.26C264.46 212.398 266.807 211.369 268.58 211.026C269.362 210.879 270.092 210.879 270.405 211.026C271.709 211.516 277.34 209.703 277.34 209.703C281.564 211.418 284.12 209.409 284.12 209.409C285.84 209.948 285.423 214.211 285.423 214.211Z" fill="#92CCFF"/>
    <path d="M285.423 214.309V215.779L263.834 215.877C263.73 215.289 263.73 214.75 263.886 214.309H285.423Z" fill="#111F72"/>
    <path d="M268.736 214.309L263.887 214.26C264.46 212.398 266.807 211.369 268.58 211.026L268.736 214.309Z" fill="#E1E6F9"/>
    <path d="M307.169 119.787C307.169 119.787 308.733 125.471 308.16 133.948C307.586 142.425 305.917 164.279 306.021 166.68C306.126 169.081 308.785 190.397 308.785 191.524C308.785 192.651 310.35 208.821 310.35 208.821C310.35 208.821 300.39 209.997 299.607 208.821C298.825 207.645 294.497 166.876 294.497 166.876L292.515 135.222L288.187 176.432C288.187 176.432 287.092 208.331 285.632 208.625C284.172 208.919 277.236 209.066 276.506 208.527C275.828 207.988 280.104 122.286 280.104 122.286C280.104 122.286 294.862 127.431 307.169 119.787Z" fill="#22B6FD"/>
    <path d="M257.264 60.5458C257.994 57.7528 261.071 59.1738 261.071 59.1738C261.071 59.1738 258.515 56.7238 259.819 55.8418C261.071 54.9598 263.73 55.4988 263.73 55.4988C263.73 55.4988 263.73 53.5388 264.721 53.2448C265.712 52.9508 266.181 54.2738 267.015 54.2738C267.85 54.2738 275.411 50.9418 278.383 57.3608C281.356 63.7799 276.715 67.3079 276.715 67.3079L262.218 63.4859C262.322 63.4369 256.377 63.9759 257.264 60.5458Z" fill="#04203F"/>
    <path d="M287.979 77.108C286.206 82.5471 275.046 84.5561 275.046 84.5561C275.046 84.5561 268.11 83.5271 270.144 81.567C270.822 80.93 271.083 80.244 271.187 79.607C271.344 78.235 270.666 77.108 270.666 77.108C270.248 77.157 269.831 77.157 269.414 77.108C260.497 76.569 262.844 59.9089 262.844 59.9089C265.19 59.4189 265.503 58.0959 265.503 58.0959C265.816 60.0069 269.936 58.6839 271.135 58.0959C272.334 57.5079 273.273 58.9779 273.273 58.9779C273.273 58.9779 271.709 63.3879 273.064 63.3389C274.472 63.2899 275.776 65.1029 275.776 65.1029C276.454 64.2699 280.521 63.7309 280.73 66.6709C280.939 69.611 278.123 69.709 278.123 69.709C278.748 74.266 287.979 77.108 287.979 77.108Z" fill="#FABBC3"/>
    <path d="M275.463 73.7759C275.359 77.6959 272.96 79.1169 271.187 79.6069C271.344 78.2349 270.666 77.1079 270.666 77.1079C270.248 77.1569 269.831 77.1569 269.414 77.1079C269.727 76.9119 270.144 76.8629 270.613 76.8629C273.221 77.0589 275.463 73.7759 275.463 73.7759Z" fill="#FF8388"/>
    <path d="M266.129 64.0742C266.129 64.0742 266.598 66.5732 265.972 68.3373C265.347 70.1013 265.868 70.8363 268.215 70.3463" stroke="#FF8388" stroke-miterlimit="10"/>
    <path d="M275.776 68.3862C275.776 68.3862 276.715 65.8381 279.531 66.3771" stroke="#FF8388" stroke-miterlimit="10" stroke-linecap="round"/>
    <path d="M278.488 68.2881C278.488 68.2881 277.028 68.2881 277.028 66.916" stroke="#FF8388" stroke-miterlimit="10" stroke-linecap="round"/>
    <path d="M266.077 71.7177C266.077 71.7177 268.736 72.0607 269.988 71.3257C271.239 70.5907 270.196 73.1877 268.11 73.5307C266.025 73.9227 266.077 71.7177 266.077 71.7177Z" fill="white"/>
    <path d="M259.715 98.8643C259.715 98.8643 254.031 118.758 254.031 119.395C254.031 119.983 250.745 129.343 250.433 132.185C250.067 134.978 245.896 135.909 245.896 137.134C245.896 138.31 251.945 136.644 252.883 135.419C253.77 134.243 254.969 137.379 255.491 137.379C256.012 137.379 255.334 134.586 254.291 133.214C253.301 131.842 257.89 125.961 259.975 121.894C262.061 117.827 268.423 100.873 268.423 100.873L259.715 98.8643Z" fill="#F7BCC2"/>
    <path d="M258.724 99.9418C258.724 99.9418 261.383 92.6407 261.383 91.6117C261.383 90.5827 264.199 82.5957 271.291 81.5177C271.291 81.5177 280.052 83.0857 286.831 76.9116L287.978 77.1076C287.978 77.1076 294.497 78.4796 295.592 78.6756C296.687 78.8716 303.675 80.2926 304.405 89.4067C305.135 98.5208 306.96 109.154 307.221 111.457C307.482 113.76 309.307 120.522 307.69 121.551C306.021 122.58 287.353 129.146 279.374 123.266C279.374 123.266 278.227 111.996 277.601 110.281C276.975 108.566 271.709 99.4028 270.822 99.3538C269.935 99.3048 269.362 101.657 269.362 101.657L258.724 99.9418Z" fill="#4E5986"/>
    <path d="M291.681 97.4916C291.681 97.4916 293.037 88.4755 293.871 87.5935C294.706 86.7115 289.543 93.8655 289.178 98.4716C288.813 103.078 289.96 105.528 289.334 107.537C288.656 109.546 287.353 115.524 287.353 115.524C287.353 115.524 293.245 106.802 291.681 97.4916Z" fill="#414C6D"/>
    <path d="M291.681 97.4922C291.681 97.4922 291.525 107.096 290.325 108.713C289.126 110.33 279.896 126.647 279.009 127.431C278.123 128.215 272.856 129.391 270.874 132.38C268.893 135.369 272.752 138.604 272.752 138.604C272.752 138.604 277.445 136.202 278.748 133.507C278.748 133.507 293.245 119.199 295.488 116.896C297.73 114.593 302.006 102.343 302.006 100.579C302.006 98.8152 300.181 97.8352 291.681 97.4922Z" fill="#F8BAC1"/>
    <path d="M138.629 144.924V217.004H144.939V145.071C144.991 145.071 138.89 145.12 138.629 144.924Z" fill="#BDC3D1"/>
    <path d="M242.767 144.924V217.004H249.077V145.071C249.077 145.071 242.975 145.12 242.767 144.924Z" fill="#BDC3D1"/>
    <path d="M289.074 141.691V139.535H270.405V141.642C270.405 141.642 289.074 141.544 289.074 141.691Z" fill="#A5B3E1"/>
    <path d="M238.439 138.8V141.642H271.552V139.045C271.552 139.045 238.647 138.947 238.439 138.8Z" fill="#505A73"/>
    <path d="M230.043 115.573H268.736L274.003 139.534L235.362 139.485L230.043 115.573Z" fill="#616D86"/>
    <path d="M153.856 118.072C153.856 118.072 153.752 121.404 153.752 121.796C153.752 122.237 152.344 124.246 152.344 124.246L155.525 124.295C155.525 124.295 156.724 124.932 155.42 125.765C154.117 126.598 152.865 128.117 153.752 129.146C154.638 130.175 160.844 126.206 160.844 126.01C160.844 125.814 162.252 122.433 161.73 121.306C161.209 120.179 158.706 117.141 158.706 117.141L153.856 118.072Z" fill="#C35E2F"/>
    <path d="M227.227 74.903C226.914 74.707 226.914 74.315 227.175 74.119C228.009 73.433 229.469 71.963 229.574 70.836C229.73 69.2189 229.209 68.5819 230.617 67.8469C231.816 67.2589 236.874 64.3189 238.439 63.3879C238.699 63.2409 239.064 63.3389 239.221 63.5839C239.325 63.7799 239.273 64.0249 239.117 64.1719L236.248 66.9159C235.988 67.1609 236.04 67.6019 236.405 67.7489C237.187 68.0919 238.282 68.7289 238.23 69.4639C238.178 70.591 238.282 73.482 237.344 73.482C236.405 73.482 236.457 72.355 236.196 72.453C235.883 72.551 234.632 74.609 233.485 74.609C232.598 74.609 231.295 75.932 230.669 76.569C230.512 76.765 230.199 76.814 229.939 76.667L227.227 74.903Z" fill="#C66231"/>
    <path d="M202.509 206.028C202.509 206.028 202.822 209.752 204.387 210.389C206.003 211.026 214.034 213.231 214.19 214.456C214.347 215.681 214.503 217.102 214.503 217.102H192.601C192.601 217.102 189.733 216.024 191.089 211.467C192.445 206.91 192.549 205.979 192.549 205.979L202.509 206.028Z" fill="black"/>
    <path d="M163.92 206.273C163.92 206.273 162.773 210.487 162.46 210.83C162.147 211.173 161.417 213.182 162.304 213.917C163.19 214.652 180.712 214.554 180.712 214.554C180.712 214.554 185.666 214.554 185.509 213.476C185.353 212.398 181.65 210.487 179.512 210.34C177.374 210.193 173.88 208.282 173.724 206.714C173.568 205.146 163.92 206.273 163.92 206.273Z" fill="#000201"/>
    <path d="M162.929 206.616C162.929 206.616 173.828 208.625 174.923 206.371C175.966 204.166 178.782 161.389 178.782 161.389L180.451 133.949L188.69 162.516L190.985 206.812L203.604 206.273L200.319 161.928C200.319 161.928 195.73 119.592 194.896 115.917L166.475 115.476C166.475 115.476 164.129 120.327 164.598 129.931C165.068 139.535 167.049 157.812 166.736 159.919C166.371 162.026 162.929 206.616 162.929 206.616Z" fill="#1F2C7A"/>
    <path d="M104.264 141.593V147.424L292.776 147.473L292.724 141.642C292.724 141.642 104.264 141.348 104.264 141.593Z" fill="#FFA002"/>
    <path d="M174.193 128.951C174.193 128.951 178.626 132.479 180.242 132.626" stroke="black" stroke-miterlimit="10"/>
    <path d="M196.46 57.0676C196.46 57.0676 195.991 57.8516 196.199 58.7826C196.408 59.7626 197.138 65.1526 191.767 64.5156L193.696 68.3377L190.515 68.0927L178.417 67.0637C178.417 67.0637 181.546 63.9276 181.337 60.3016C181.129 56.6756 187.178 44.5725 192.706 44.7685C192.706 44.7685 195.209 47.5125 195.313 49.7665C195.417 52.0205 196.825 54.3725 197.034 54.7645C197.138 55.1566 198.442 56.4306 196.46 57.0676Z" fill="#C66231"/>
    <path d="M193.696 68.3364L190.515 68.0914L188.534 67.4054L187.647 61.1823C187.647 61.1823 186.969 57.8013 189.264 61.6233C189.264 61.6233 190.15 63.3873 191.819 64.5143L193.696 68.3364Z" fill="#963E18"/>
    <path d="M231.242 76.7654C231.242 76.7654 217.423 96.1695 215.963 97.5415C214.451 98.8645 212.157 99.8445 209.966 97.7865C207.776 95.7285 201.362 88.7215 201.362 88.7215C201.362 88.7215 200.006 87.6434 199.746 91.3185C199.485 95.0425 197.451 106.117 197.086 107.489C196.721 108.812 196.721 116.309 196.721 116.603C196.721 116.897 195.104 116.75 193.436 117.387C191.819 118.024 175.601 122.287 164.703 116.407C164.703 116.407 167.988 107.783 167.31 105.088C166.632 102.393 163.92 93.0335 163.92 93.0335L158.08 97.8355C158.08 97.8355 157.819 99.8935 158.288 102.54C158.758 105.235 159.592 117.338 159.592 117.338C159.592 117.338 154.638 119.2 153.23 118.563C153.23 118.563 150.153 106.117 149.267 104.206C148.38 102.295 146.503 97.1005 149.058 93.3275C151.614 89.5545 160.948 75.4424 160.948 75.4424C160.948 75.4424 165.276 68.8763 174.871 67.7003C174.871 67.7003 175.966 67.7003 177.322 66.9163C178.261 66.3773 179.304 65.4953 180.242 63.9763C180.242 63.9763 189.942 63.3393 192.497 65.1033L194.061 68.0433C194.061 68.0433 198.546 70.5913 199.85 70.6403C201.153 70.6893 204.96 70.9833 208.193 76.2754C211.479 81.5674 213.773 84.3114 213.773 84.3114L227.019 73.3843L231.242 76.7654Z" fill="#5193F1"/>
    <path d="M194.114 68.1409L177.426 67.0139C178.365 66.4749 179.408 65.5929 180.347 64.0739C180.347 64.0739 190.046 63.4369 192.601 65.2009L194.114 68.1409Z" fill="white"/>
    <path d="M192.184 43.2488C191.819 42.8078 187.386 40.8478 183.423 42.5628C179.408 44.2778 177.791 44.8168 176.436 47.5608C173.411 53.6858 176.592 60.6929 180.503 60.8399C184.414 60.9869 187.386 60.7419 188.273 55.2048C188.377 53.9308 189.368 51.9218 190.776 53.0978C192.184 54.2248 191.663 53.8818 191.663 53.8818L192.445 53.0978C192.445 53.0978 191.298 51.7748 191.663 50.8438C192.028 49.8638 191.975 47.7568 191.767 47.2178C191.558 46.6788 193.279 46.7278 193.644 44.9638" fill="#331531"/>
    <path d="M191.819 58.6351C191.194 58.6351 190.672 58.4881 190.203 58.1941C189.473 57.7041 188.951 56.9201 188.795 55.8911C188.43 53.8331 189.577 53.3921 189.629 53.3431C189.786 53.2941 189.89 53.3431 189.942 53.4901C189.994 53.6371 189.942 53.7351 189.786 53.7841C189.733 53.7841 188.951 54.1271 189.264 55.7931C189.421 56.7241 189.838 57.4101 190.464 57.7531C191.037 58.0961 191.767 58.1941 192.602 57.9981C192.758 57.9491 192.862 58.0471 192.914 58.1941C192.967 58.3411 192.862 58.4391 192.706 58.4881C192.445 58.5861 192.132 58.6351 191.819 58.6351Z" fill="#963E18"/>
    <path d="M192.81 56.9196C192.706 56.9196 192.549 56.8217 192.549 56.7236C192.236 54.8616 190.15 54.7146 190.046 54.7146C189.89 54.7146 189.785 54.5676 189.785 54.4696C189.785 54.3716 189.942 54.2246 190.046 54.2246C190.046 54.2246 192.654 54.4206 193.019 56.6746C193.071 56.7726 192.966 56.9196 192.81 56.9196Z" fill="#963E18"/>
    <path d="M191.298 57.1156C191.245 57.1156 191.141 57.0666 191.089 57.0176C190.985 56.9196 191.037 56.7726 191.141 56.6746C191.611 56.2826 191.454 55.3515 191.35 55.0575C191.298 54.9105 191.402 54.8125 191.506 54.7635C191.663 54.7145 191.767 54.8125 191.819 54.9105C191.819 54.9595 192.288 56.4296 191.454 57.0666C191.454 57.1156 191.35 57.1156 191.298 57.1156Z" fill="#963E18"/>
</svg>
