<svg width="276" height="95" viewBox="0 0 276 95" fill="none" xmlns="http://www.w3.org/2000/svg">
    <path d="M252.27 78.7801L256.64 66.6301L261 78.7801H252.27ZM261.87 58.0801H251.6L237.77 94.1301H246.77L249.5 86.5601H263.8L266.53 94.1301H275.7L261.87 58.0801ZM215.59 65.6501C217.315 65.6028 219.022 66.0195 220.531 66.8568C222.04 67.6941 223.297 68.9213 224.17 70.4101L231.71 66.0901C228.65 60.6301 222.57 57.4101 215.71 57.4101C204.59 57.4101 196.71 65.1901 196.71 76.1001C196.71 87.0101 204.56 94.7901 215.71 94.7901C222.62 94.7901 228.1 91.7301 231.4 86.7901L224.34 81.7901C223.416 83.2583 222.132 84.4651 220.608 85.295C219.085 86.1249 217.374 86.5501 215.64 86.5301C210.31 86.5301 205.7 82.7701 205.7 76.0701C205.7 69.9001 209.92 65.6201 215.61 65.6201L215.59 65.6501ZM177.88 94.1301H186.47V58.1301H177.88V94.1301ZM146.74 73.4001V65.8801H153.74C156.74 65.8801 158.74 67.0701 158.74 69.6101C158.74 72.1501 156.84 73.4001 153.74 73.4001H146.74ZM167.47 69.6101C167.47 62.5101 162.73 58.0801 153.82 58.0801H138.14V94.1301H146.74V80.6401H148L157.5 94.1301H167.75L157.4 80.3801C163.86 79.3801 167.47 75.3801 167.47 69.6101ZM107.72 79.7901H125.51V72.0601H107.72V65.8301H126.62V58.0801H99.12V94.1301H126.72V86.3801H107.72V79.7901ZM66.68 81.0001L58.47 58.0801H46.29V94.1301H54.89V69.5401L62.1 90.7301H71.24L78.45 69.4601V94.1301H87V58.1301H74.84L66.68 81.0001ZM14.49 78.7801L18.87 66.6301L23.25 78.7801H14.49ZM13.83 58.0801L0 94.1301H9L11.73 86.5601H26L28.73 94.1301H37.89L24.07 58.1301L13.83 58.0801ZM241.63 20.0801C242.841 18.5433 244.444 17.3618 246.27 16.6601L247.65 20.5801H247.75C249.065 20.6371 250.353 20.1981 251.36 19.3501C251.812 18.9637 252.172 18.4814 252.415 17.9382C252.657 17.395 252.775 16.8046 252.76 16.2101C252.783 15.7011 252.699 15.1929 252.515 14.718C252.33 14.243 252.049 13.8116 251.689 13.4514C251.328 13.0911 250.897 12.8098 250.422 12.6253C249.947 12.4409 249.439 12.3574 248.93 12.3801C247.397 12.4985 245.947 13.1249 244.81 14.1601C243.018 15.6434 241.445 17.374 240.14 19.3001L241.57 12.3801H239.78L230.91 14.4401V16.2601L235.18 16.8801L231.06 37.7801H237.4L239.4 25.7801C239.669 23.7025 240.434 21.7202 241.63 20.0001V20.0801ZM211.72 18.7901C213.093 16.2634 214.76 14.9968 216.72 14.9901C217.393 14.9574 218.061 15.1109 218.652 15.4338C219.244 15.7566 219.734 16.2364 220.07 16.8201C220.926 18.5245 221.313 20.4265 221.19 22.3301C221.306 25.5924 220.59 28.8307 219.11 31.7401C217.71 34.2534 216.017 35.5101 214.03 35.5101C213.371 35.5328 212.719 35.3741 212.144 35.0514C211.569 34.7287 211.094 34.2544 210.77 33.6801C209.922 32.0265 209.535 30.1749 209.65 28.3201C209.531 25.0224 210.236 21.7471 211.7 18.7901H211.72ZM204.2 21.5701C203.411 23.4688 203.003 25.5041 203 27.5601C202.929 28.9808 203.142 30.4013 203.626 31.7388C204.11 33.0763 204.856 34.3039 205.82 35.3501C206.824 36.3342 208.022 37.0992 209.337 37.5967C210.652 38.0941 212.056 38.3132 213.46 38.2401C215.317 38.2497 217.157 37.8858 218.87 37.1701C220.546 36.4806 222.067 35.4603 223.34 34.1701C224.779 32.6804 225.914 30.9243 226.68 29.0001C227.458 27.0713 227.855 25.01 227.85 22.9301C227.919 21.5162 227.703 20.1027 227.213 18.7745C226.723 17.4463 225.971 16.2305 225 15.2001C223.99 14.2253 222.791 13.4684 221.477 12.9764C220.163 12.4845 218.761 12.2679 217.36 12.3401C215.519 12.3366 213.696 12.7039 212 13.4201C210.304 14.1304 208.772 15.1822 207.5 16.5101C206.078 17.9765 204.96 19.7098 204.21 21.6101L204.2 21.5701ZM203.75 13.7001H196.75C197.146 11.2981 197.717 8.92838 198.46 6.61009C198.903 5.09778 199.611 3.67586 200.55 2.41009L204.87 6.94009C205.779 6.77368 206.617 6.33417 207.27 5.68009C207.555 5.40106 207.781 5.06811 207.935 4.70068C208.09 4.33324 208.17 3.9387 208.17 3.54009C208.17 3.03289 208.042 2.53386 207.797 2.08967C207.553 1.64547 207.199 1.2706 206.77 1.00009C205.721 0.293893 204.473 -0.0566642 203.21 8.90661e-05C201.735 0.0285344 200.283 0.37049 198.95 1.00325C197.617 1.636 196.434 2.54507 195.48 3.67009C193.084 6.30729 191.525 9.59613 191 13.1201L187 14.8801L186.95 17.1501L190.4 16.7201L188.18 32.4801C187.8 35.4077 187.26 38.3121 186.56 41.1801C186.232 42.6309 185.649 44.0122 184.84 45.2601L179.33 42.3101C178.701 42.5643 178.166 43.0082 177.8 43.5801C177.435 44.1821 177.251 44.8764 177.27 45.5801C177.261 46.0129 177.346 46.4426 177.518 46.8396C177.691 47.2366 177.947 47.5916 178.27 47.8801C178.971 48.4931 179.88 48.815 180.81 48.7801C182.678 48.7065 184.475 48.0411 185.94 46.8801C187.847 45.4565 189.46 43.677 190.69 41.6401C191.66 40.0875 192.436 38.4217 193 36.6801C193.667 34.5544 194.155 32.3769 194.46 30.1701L196.34 16.7201H203.81L203.75 13.7001ZM165.88 30.0001H146.88V23.4001H164.67V15.6701H146.87V9.44009H165.77V1.69009H138.27V37.7401H165.88V30.0001ZM109.13 29.7901H102.49V9.65009H109.13C115.83 9.65009 119.04 13.8201 119.04 19.7101C119.04 25.6001 115.83 29.7801 109.13 29.7801V29.7901ZM109.31 1.69009H93.89V37.7401H109.31C120.59 37.7401 128.03 30.5801 128.03 19.7401C128.03 8.90009 120.59 1.74009 109.31 1.74009V1.69009ZM63.62 9.26009C69.49 9.26009 73.62 13.5401 73.62 19.7101C73.62 25.8801 69.45 30.1701 63.62 30.1701C57.79 30.1701 53.62 25.8901 53.62 19.7101C53.62 13.5301 57.79 9.26009 63.62 9.26009ZM63.62 38.4101C74.74 38.4101 82.62 30.4801 82.62 19.7101C82.62 8.94009 74.74 1.00009 63.62 1.00009C52.5 1.00009 44.62 8.93009 44.62 19.6901C44.62 30.4501 52.49 38.3901 63.62 38.3901V38.4101ZM20.44 38.3901C27.34 38.3901 32.83 35.3201 36.12 30.3901L29.12 25.3901C28.1955 26.8598 26.909 28.0675 25.3839 28.8974C23.8588 29.7274 22.1462 30.1518 20.41 30.1301C15.08 30.1301 10.48 26.3701 10.48 19.6701C10.48 13.5001 14.7 9.22009 20.39 9.22009C22.1074 9.18454 23.803 9.60901 25.3011 10.4495C26.7992 11.29 28.0452 12.5159 28.91 14.0001L36.46 9.70009C33.39 4.24009 27.32 1.00009 20.44 1.00009C9.32 1.00009 1.44 8.78009 1.44 19.6901C1.44 30.6001 9.29 38.3901 20.44 38.3901Z" fill="white"/>
</svg>
