<svg height="100%" width="100%" xmlns="http://www.w3.org/2000/svg" viewBox="26 18 49 65">
    <path d="M80.952 74.251c-.74.802-1.917 1.41-3.104 1.721-3.226.844-7.038-.031-10.038-1.351-9.568-4.21-7.455-14.872-3.259-22.225 1.26-2.208 2.503-4.431 3.754-6.666.984-1.76 3.114-4.724 2.28-6.875-.875-2.256-3.216-2.27-4.753-.369-1.479 1.829-2.726 4.454-3.746 6.584-1.111 2.319-6.656 14.507-6.656 14.507-1.024 1.985-2.751 4.839-4.624 6.416-1.397 1.177-3.95 1.522-5.629.303-1.275-.927-1.527-2.159-1.277-3.594 1.156-6.625 11.204-22.04 4.274-23.125-2.656-.416-3.377 2.539-4.196 4.426-1.354 3.116-2.386 6.361-3.834 9.441a54.555 54.555 0 00-3.813 11.02c-.698 3.037-1.602 6.907-5.06 7.832-9.465 2.531-12.341-3.718-12.341-3.719-1.545-4.916-.08-9.338 1.408-14.066 1.15-3.652 1.837-7.419 3.293-10.973 2.598-6.336 5.187-19.556 14.549-18.711 2.39.216 5.063 1.424 7.128 2.628 1.877 1.095 3.305 1.679 5.49.499 2.126-1.146 3.099-3.277 5.632-4.008 2.715-.783 4.5.376 6.53 2.009 2.846 2.288 3.156 1.254 5.504.653 1.947-.499 4.208-.73 6.342-.365 10.982 1.882 3.988 15.901 1.368 21.535-1.705 3.665-9.844 18.404-2.633 20.385 2.175.597 4.979.325 6.79 1.885 1.841 1.585 1.658 3.082.621 4.203z"/>
</svg>
