<svg width="127" height="59" viewBox="0 0 127 59" fill="none" xmlns="http://www.w3.org/2000/svg">
<path d="M24.962 58.314C21.7028 58.4002 18.4481 58.0335 15.3069 57.226C13.0271 56.6288 11.0772 55.255 9.85039 53.3817C8.67294 51.5442 8.16239 48.9571 8.31874 45.6206L8.63273 38.3672C8.63273 35.3208 8.05837 33.2052 6.90963 32.0205C5.7609 30.8358 3.981 30.2423 1.56994 30.2399H0V26.178H1.48761C3.94718 26.178 5.77877 25.5615 6.98239 24.3284C8.186 23.0953 8.78781 21.1248 8.78781 18.4169L8.63082 13.198C8.63082 4.78411 13.393 0.577148 22.9172 0.577148H27.8625V4.71157H21.4296C16.5628 4.71157 14.1294 7.27443 14.1294 12.4001L14.2864 17.4775C14.2864 22.7966 12.01 26.375 7.45719 28.2125C11.9053 29.5688 14.1294 33.3164 14.1294 39.4552L13.8939 45.5481C13.8939 48.7879 14.6527 51.0485 16.1703 52.33C17.6879 53.6114 20.226 54.2521 23.7845 54.2521H27.7879V58.314H24.962Z" fill="#133654"/>
<path d="M98.7566 58.314V54.2521H102.76C106.318 54.2521 108.857 53.6114 110.374 52.33C111.892 51.0485 112.651 48.7879 112.651 45.5481L112.415 39.4552C112.415 33.314 114.639 29.5665 119.087 28.2125C114.534 26.375 112.258 22.7966 112.258 17.4775L112.415 12.4001C112.415 7.27443 109.982 4.71157 105.115 4.71157H98.6781V0.577148H103.623C113.148 0.577148 117.91 4.78411 117.91 13.198L117.753 18.4169C117.753 21.1248 118.355 23.0953 119.558 24.3284C120.762 25.5615 122.593 26.178 125.053 26.178H126.544V30.2399H124.976C122.569 30.2399 120.79 30.8323 119.639 32.017C118.487 33.2017 117.913 35.3173 117.916 38.3637L118.23 45.6171C118.387 48.9536 117.876 51.5406 116.698 53.3782C115.471 55.2515 113.521 56.6253 111.241 57.2225C108.1 58.0299 104.845 58.3967 101.586 58.3105L98.7566 58.314Z" fill="#133654"/>
<path d="M63.8065 52.6074C78.8741 52.6074 91.0889 41.9146 91.0889 28.7244C91.0889 15.5341 78.8741 4.84131 63.8065 4.84131C48.7388 4.84131 36.524 15.5341 36.524 28.7244C36.524 41.9146 48.7388 52.6074 63.8065 52.6074Z" fill="#56A4D8"/>
<path d="M90.1477 29.0815H37.486V41.3212H90.1477V29.0815Z" fill="white"/>
<path d="M63.7825 0.37207C57.7309 0.37207 51.8152 2.03026 46.7834 5.13695C41.7517 8.24364 37.83 12.6593 35.5141 17.8255C33.1983 22.9918 32.5923 28.6765 33.7729 34.161C34.9535 39.6454 37.8677 44.6832 42.1468 48.6373C46.4259 52.5914 51.8779 55.2841 57.8132 56.375C63.7486 57.466 69.9007 56.9061 75.4916 54.7661C81.0826 52.6262 85.8613 49.0024 89.2234 44.3529C92.5855 39.7034 94.38 34.2371 94.38 28.6452C94.38 21.1467 91.1563 13.9553 85.4182 8.65307C79.68 3.35084 71.8975 0.37207 63.7825 0.37207ZM63.7825 52.6777C58.6385 52.6777 53.6101 51.2682 49.3331 48.6275C45.056 45.9868 41.7225 42.2334 39.754 37.842C37.7855 33.4507 37.2704 28.6185 38.2739 23.9567C39.2775 19.2948 41.7545 15.0126 45.3919 11.6516C49.0292 8.2906 53.6634 6.00172 58.7085 5.07442C63.7536 4.14712 68.983 4.62304 73.7354 6.44201C78.4878 8.26097 82.5498 11.3413 85.4076 15.2934C88.2654 19.2455 89.7908 23.892 89.7908 28.6452C89.7908 35.019 87.0506 41.1318 82.1731 45.6388C77.2956 50.1457 70.6803 52.6777 63.7825 52.6777Z" fill="#133654"/>
<path d="M80.5751 29.0818L70.0163 26.0071L73.251 20.2717L67.0842 23.2394L63.7835 13.5649L60.4751 23.2685L54.2528 20.2734L57.4942 26.0231L46.9929 29.081L57.4645 32.1309L54.2528 37.8257L60.4589 34.8386L63.7845 44.5996L67.1024 34.8695L73.2491 37.8275L70.0479 32.1469L80.5751 29.0818ZM63.771 27.939C62.1894 27.941 60.6325 27.5761 59.2431 26.8776L56.8949 22.7201L61.4075 24.8926L63.8093 17.8551L66.2025 24.8696L70.6692 22.7201L68.3315 26.8678C66.9334 27.5745 65.3646 27.943 63.771 27.939Z" fill="#133654"/>
<path d="M50.3931 17.516L52.166 18.3687L51.2431 16.7305L52.166 15.0923L50.3931 15.945L48.6202 15.0923L49.543 16.7305L48.6202 18.3687L50.3931 17.516Z" fill="white"/>
<path d="M63.75 10.8609L64.3503 9.09979L66.2562 8.54517L64.3503 7.99056L63.75 6.22852L63.1499 7.98966L61.2439 8.54428L63.1499 9.0989L63.75 10.8609Z" fill="white"/>
<path d="M75.3339 18.3687L77.1068 17.516L78.8797 18.3687L77.9569 16.7305L78.8797 15.0923L77.1068 15.945L75.3339 15.0923L76.2567 16.7305L75.3339 18.3687Z" fill="white"/>
<path d="M66.1986 24.8695L63.8054 17.855L61.4065 24.8899L56.8939 22.7183L59.2411 26.8819C60.6371 27.5805 62.2002 27.9448 63.7877 27.9417C65.3753 27.9386 66.9367 27.5682 68.3295 26.8642L70.6672 22.7165L66.1986 24.8695Z" fill="white"/>
</svg>
