<svg width="362" height="176" viewBox="0 0 362 176" fill="none" xmlns="http://www.w3.org/2000/svg">
<g clip-path="url(#clip0_37_1225)">
<path d="M49.252 140.014H321.503V2.24512H49.252V140.014Z" fill="white"/>
<path d="M323.749 142.259H47.0061V0H323.749V142.259ZM51.4978 137.769H319.257V4.48982H51.4978V137.769Z" fill="#E5E5E5"/>
<path d="M176.318 31.3906V78.1511H108.316L95.7527 93.2185L97.1872 78.1511H91.0745V31.3906H176.318Z" fill="#0056EB"/>
<path d="M217.47 34.165V64.146H261.07L269.125 73.8062L268.206 64.146H272.125V34.165H217.47Z" fill="#93C9F9"/>
<path d="M37.5321 170.705H41.4658L43.3372 155.539H37.5317L37.5321 170.705Z" fill="#FFB7B7"/>
<path d="M36.5291 169.421L44.2757 169.421H44.276C45.5853 169.421 46.8409 169.941 47.7667 170.866C48.6925 171.792 49.2127 173.047 49.2128 174.356V174.516L36.5293 174.516L36.5291 169.421Z" fill="#2F2E41"/>
<path d="M84.7912 170.576L88.6111 169.636L86.8027 154.462L81.1653 155.849L84.7912 170.576Z" fill="#FFB7B7"/>
<path d="M83.5103 169.569L91.0324 167.718L91.0327 167.718C92.3041 167.405 93.6477 167.61 94.7679 168.288C95.8881 168.965 96.6932 170.06 97.0061 171.331L97.0444 171.486L84.7284 174.516L83.5103 169.569Z" fill="#2F2E41"/>
<path d="M35.1133 167.089L35.9304 162.909C35.9304 162.909 37.4346 146.774 48.2294 130.67L51.743 113.176C51.743 113.176 50.6995 99.9342 60.7712 92.7665L63.8763 90.6284L74.7629 91.2522L77.2772 105.012L82.3435 137.57C82.3435 137.57 83.6509 137.692 84.1412 141.457C85.1376 143.038 85.7271 144.841 85.8571 146.706C85.8571 146.706 88.4499 153.855 89.1444 159.119L89.0627 164.27L83.5879 167.186L72.1771 134.928L64.0156 116.895C64.0156 116.895 60.0875 129.601 54.0707 140.485C54.0707 140.485 45.8298 158.315 44.1835 161.938L42.3858 167.866L35.1133 167.089Z" fill="#1F2C7A"/>
<path d="M71.5131 62.9406C75.8106 62.9406 79.2944 59.4582 79.2944 55.1624C79.2944 50.8667 75.8106 47.3843 71.5131 47.3843C67.2155 47.3843 63.7317 50.8667 63.7317 55.1624C63.7317 59.4582 67.2155 62.9406 71.5131 62.9406Z" fill="#FFB7B7"/>
<path d="M71.5131 47.3843C67.2155 47.3843 63.7317 50.8667 63.7317 55.1624C63.7317 57.2619 64.4668 61.6224 64.644 65.232C64.8295 69.0082 64.5037 71.9903 66.7009 71.9903C69.0208 71.9903 71.9899 69.3457 71.9899 63.7628C71.9899 63.7628 79.2944 57.1393 79.2944 55.1624C79.2944 50.8667 75.8106 47.3843 71.5131 47.3843Z" fill="#FFB8B8"/>
<path d="M60.7939 92.8497L63.3627 86.436C61.5478 80.5599 61.659 74.2578 63.6802 68.4494L64.1716 68.0448C68.4531 64.5204 72.2109 65.162 75.698 69.4733C76.2596 70.1742 76.9163 70.7932 77.6493 71.3124C79.1872 72.391 81.6272 78.251 78.4056 81.686L75.8283 96.7141C76.0997 105.011 70.0763 101.887 60.7939 92.8497Z" fill="#1B7ACC"/>
<path d="M97.6261 84.1262C97.2939 83.8751 96.9106 83.6998 96.5034 83.6128C96.0961 83.5257 95.6746 83.529 95.2688 83.6223C94.8629 83.7157 94.4824 83.8969 94.1541 84.1531C93.8259 84.4094 93.5578 84.7345 93.3689 85.1055L86.8782 84.6003L85.6091 88.4682L94.7852 89.0529C95.4297 89.3289 96.1532 89.359 96.8184 89.1374C97.4837 88.9159 98.0446 88.4581 98.3947 87.8508C98.7449 87.2436 98.8601 86.529 98.7184 85.8425C98.5767 85.156 98.1881 84.5454 97.6261 84.1262H97.6261Z" fill="#FFB7B7"/>
<path d="M91.4119 90.4009L72.917 86.9489L66.9015 76.8677C66.515 75.7965 66.57 74.6156 67.0545 73.5849C67.539 72.5543 68.4132 71.7582 69.4849 71.3719C70.5566 70.9855 71.7379 71.0405 72.769 71.5248C73.8001 72.0091 74.5965 72.883 74.983 73.9542L77.8044 81.7533L92.4313 84.1734L91.4119 90.4009Z" fill="#6ABAFF"/>
<path d="M57.6428 53.4586C61.7657 53.4586 65.108 50.1176 65.108 45.9964C65.108 41.8751 61.7657 38.5342 57.6428 38.5342C53.5198 38.5342 50.1775 41.8751 50.1775 45.9964C50.1775 50.1176 53.5198 53.4586 57.6428 53.4586Z" fill="#7D3F12"/>
<path d="M51.2036 52.1757C52.1698 52.8738 53.2892 53.3304 54.4682 53.5074C55.6472 53.6843 56.8514 53.5765 57.9801 53.1929C59.1089 52.8092 60.1293 52.161 60.956 51.3023C61.7827 50.4437 62.3916 49.3996 62.7319 48.2575C62.6031 49.281 62.2635 50.2667 61.7344 51.1524C61.2053 52.0381 60.4982 52.8045 59.6578 53.4033C58.8174 54.002 57.862 54.4201 56.8518 54.6312C55.8416 54.8422 54.7986 54.8416 53.7887 54.6293C52.7787 54.4171 51.8238 53.9979 50.9841 53.3981C50.1444 52.7984 49.4383 52.0311 48.9102 51.1448C48.3821 50.2585 48.0437 49.2723 47.9161 48.2487C47.7886 47.225 47.8747 46.186 48.1692 45.1973C48.002 46.5256 48.1954 47.8744 48.7293 49.1023C49.2632 50.3301 50.1178 51.3917 51.2036 52.1757Z" fill="#7D3F12"/>
<path d="M80.6649 52.1839C79.3617 49.8517 78.863 48.8775 77.1826 47.4593C75.6967 46.205 73.8689 45.8367 72.3946 47.0251C70.6506 46.2719 68.71 46.1011 66.8612 46.5381C65.0123 46.9751 63.3538 47.9966 62.132 49.4509C60.9102 50.9051 60.1902 52.7145 60.0791 54.6104C59.968 56.5062 60.4716 58.3872 61.5152 59.9742C62.5587 61.5611 64.0866 62.7692 65.8717 63.419C67.6569 64.0689 69.6041 64.1258 71.4242 63.5813C73.2443 63.0368 74.8401 61.92 75.9747 60.3967C77.1092 58.8734 77.7219 57.025 77.7217 55.1259C77.7204 54.7924 77.7003 54.4593 77.6616 54.128C78.9431 53.9481 79.3834 52.3638 80.6649 52.1839Z" fill="#7D3F12"/>
<path d="M310.158 108.011C310.182 107.496 310.319 106.993 310.559 106.537C310.799 106.081 311.136 105.683 311.547 105.371C311.957 105.059 312.431 104.841 312.935 104.732C313.439 104.624 313.96 104.626 314.463 104.741L319.126 98.1719L323.811 100.031L317.095 109.215C316.847 110.046 316.302 110.758 315.564 111.214C314.826 111.671 313.946 111.841 313.091 111.693C312.236 111.545 311.465 111.088 310.925 110.409C310.384 109.73 310.111 108.877 310.158 108.011Z" fill="#A0616A"/>
<path d="M315.273 102.361L323.564 88.423L320.186 79.4191L324.787 67.1558L324.956 67.2285C325.068 67.2762 327.682 68.4422 328.069 72.6179L333.356 89.2266L319.246 107.524L315.273 102.361Z" fill="#3F3D56"/>
<path d="M270.245 51.1198C270.757 51.1839 271.248 51.3594 271.684 51.6338C272.12 51.9082 272.491 52.2749 272.77 52.708C273.05 53.1412 273.23 53.6303 273.3 54.1408C273.37 54.6514 273.327 55.171 273.174 55.6631L279.365 60.8182L277.149 65.3433L268.508 57.9405C267.698 57.6288 267.03 57.031 266.632 56.2602C266.233 55.4895 266.131 54.5995 266.345 53.7587C266.56 52.918 267.075 52.185 267.794 51.6986C268.512 51.2123 269.385 51.0063 270.245 51.1198Z" fill="#A0616A"/>
<path d="M275.484 56.6543L288.745 65.9946L297.987 63.3244L309.863 68.8574L309.777 69.0209C309.721 69.1281 308.356 71.643 304.161 71.7063L287.187 75.691L270.028 60.2145L275.484 56.6543Z" fill="#3F3D56"/>
<path d="M299.75 170.237H295.14L292.947 152.461L299.751 152.462L299.75 170.237Z" fill="#A0616A"/>
<path d="M291.846 168.92H300.738V174.516H286.248C286.248 173.781 286.393 173.053 286.674 172.374C286.956 171.695 287.368 171.079 287.888 170.559C288.408 170.039 289.025 169.627 289.704 169.346C290.383 169.065 291.111 168.92 291.846 168.92Z" fill="#2F2E41"/>
<path d="M318.176 170.237H313.566L311.373 152.461L318.177 152.462L318.176 170.237Z" fill="#A0616A"/>
<path d="M310.273 168.92H319.164V174.516H304.675C304.675 173.781 304.819 173.053 305.101 172.374C305.382 171.695 305.794 171.079 306.314 170.559C306.834 170.039 307.451 169.627 308.13 169.346C308.81 169.065 309.538 168.92 310.273 168.92Z" fill="#2F2E41"/>
<path d="M319.816 105.356L319.44 131.668L319.064 166.25L310.791 165.499L306.654 117.76L301.389 165.499H292.848L291.988 117.384L294.997 106.859L319.816 105.356Z" fill="#127EB1"/>
<path d="M314.699 165.43L307.06 118.123L310.879 165.43H314.699Z" fill="#0E6188"/>
<path d="M309.067 37.2993C304.287 37.2993 300.412 41.1729 300.412 45.9512C300.412 48.6218 301.622 51.0099 303.525 52.5969C304.26 53.2105 304.3 56.0003 305.297 57.0045C306.472 57.2983 308.335 57.5921 309.411 57.5921C310.525 57.5921 311.467 58.1798 312.055 57.5921C312.662 56.7962 313.532 53.3986 314.112 52.9822C316.298 51.4119 317.722 48.8477 317.722 45.9512C317.722 41.1729 313.847 37.2993 309.067 37.2993Z" fill="#A0616A"/>
<path d="M294.172 107.02L292.912 106.965L298.766 74.7287L296.369 64.9852C296.244 64.4783 296.31 63.9433 296.554 63.4816C296.797 63.0199 297.202 62.6636 297.691 62.4802L302.004 60.8637L303.527 56.6753L315.548 57.9701L315.844 61.2435C317.147 61.6611 327.874 65.2322 327.134 69.3012C326.403 73.3174 322.09 85.9532 321.871 86.5935L321.116 104.715L321.023 104.761C320.911 104.817 312.625 108.89 303.623 108.889C300.376 108.943 297.154 108.306 294.172 107.02Z" fill="#3F3D56"/>
<path d="M316.078 54.3261C314.428 56.0825 311.365 55.1396 311.15 52.7402C311.133 52.5539 311.134 52.3664 311.153 52.1804C311.264 51.1175 311.879 50.1526 311.732 49.0304C311.698 48.7511 311.594 48.4849 311.429 48.2571C310.115 46.4977 307.029 49.044 305.789 47.4513C305.028 46.4746 305.922 44.9369 305.338 43.8454C304.568 42.4047 302.286 43.1154 300.855 42.3264C299.263 41.4485 299.358 39.0066 300.406 37.5214C301.684 35.71 303.925 34.7435 306.139 34.6042C308.352 34.4649 310.55 35.0629 312.616 35.8678C314.963 36.7823 317.291 38.0462 318.736 40.1096C320.493 42.6189 320.662 45.9924 319.783 48.9266C319.249 50.7115 317.425 52.8919 316.078 54.3261Z" fill="#2F2E41"/>
<path d="M222.301 167.847L223.587 164.54L211.441 158.009L209.543 162.889L222.301 167.847Z" fill="#FFB8B8"/>
<path d="M229.19 159.222C228.645 159.01 228.064 158.907 227.479 158.92C226.894 158.933 226.318 159.06 225.782 159.296C225.247 159.532 224.763 159.87 224.359 160.293C223.955 160.715 223.637 161.213 223.426 161.758L222.558 163.987L221.221 167.427L220.894 168.271L225.18 169.937L229.325 159.276L229.19 159.222Z" fill="#2F2E41"/>
<path d="M221.222 161.484L220.662 162.967L219.267 166.667L219.233 166.759C215.677 167.216 211.779 166.321 208.173 164.93C206.731 164.373 205.318 163.743 203.94 163.042C201.901 162.012 200.076 160.925 198.619 159.995C196.426 158.588 195.07 157.532 195.07 157.532C195.07 157.532 194.712 157.856 194.064 158.41C193.195 159.154 191.807 160.314 190.048 161.68C189.378 162.204 188.657 162.753 187.888 163.326C182.214 167.533 174.933 156.308 174.933 156.308C174.933 156.308 176.981 155.005 177.516 154.752C179.238 153.937 183.285 152.015 186.777 150.307C188.575 149.425 190.225 148.599 191.332 148.011C195.253 145.925 200.127 149.873 200.127 149.873L221.222 161.484Z" fill="#2F2E41"/>
<path opacity="0.14" d="M221.222 161.484L220.662 162.967L219.267 166.667L219.233 166.759C215.677 167.216 211.779 166.321 208.173 164.93C206.731 164.373 205.318 163.743 203.94 163.042C201.901 162.012 200.076 160.925 198.619 159.995C196.426 158.588 195.07 157.532 195.07 157.532C195.07 157.532 194.712 157.856 194.064 158.41C193.195 159.154 191.807 160.314 190.048 161.68C189.378 162.204 188.657 162.753 187.888 163.326C182.214 167.533 174.933 156.308 174.933 156.308C174.933 156.308 176.981 155.005 177.516 154.752C179.238 153.937 183.285 152.015 186.777 150.307C188.575 149.425 190.225 148.599 191.332 148.011C195.253 145.925 200.127 149.873 200.127 149.873L221.222 161.484Z" fill="black"/>
<path d="M164.471 130.366H147.683C147.338 130.365 147.007 130.228 146.762 129.984C146.518 129.74 146.381 129.409 146.38 129.064V121.83C146.38 119.26 147.402 116.794 149.22 114.977C151.039 113.159 153.505 112.138 156.077 112.138C158.649 112.138 161.115 113.159 162.934 114.977C164.752 116.794 165.774 119.26 165.774 121.83V129.064C165.773 129.409 165.636 129.74 165.392 129.984C165.148 130.228 164.817 130.365 164.471 130.366Z" fill="#2F2E41"/>
<path d="M180.437 139.451C180.046 139.52 179.675 139.673 179.35 139.901C179.025 140.128 178.753 140.424 178.555 140.768C178.357 141.111 178.236 141.494 178.202 141.889C178.168 142.284 178.221 142.682 178.357 143.055L173.792 147.252L175.667 150.647L182.03 144.63C182.641 144.359 183.132 143.874 183.409 143.267C183.686 142.659 183.731 141.971 183.534 141.333C183.338 140.695 182.914 140.151 182.343 139.804C181.772 139.457 181.094 139.332 180.437 139.451V139.451Z" fill="#FFB8B8"/>
<path d="M166.701 158.533C166.494 158.533 166.288 158.524 166.081 158.507C164.85 158.404 163.664 157.99 162.637 157.304C161.609 156.618 160.773 155.682 160.206 154.585L152.892 140.513C152.413 139.591 152.308 138.52 152.599 137.523C152.889 136.525 153.554 135.678 154.453 135.158C155.353 134.637 156.419 134.484 157.429 134.729C158.439 134.974 159.316 135.598 159.877 136.473L166.624 151.606L175.805 144.15L181.121 146.218L172.143 156.125C171.453 156.883 170.613 157.488 169.676 157.902C168.739 158.317 167.725 158.532 166.701 158.533Z" fill="#5193F1"/>
<path d="M221.275 172.497L222.811 169.299L211.203 161.854L208.936 166.574L221.275 172.497Z" fill="#FFB8B8"/>
<path d="M228.807 164.427C228.28 164.173 227.708 164.026 227.124 163.994C226.54 163.962 225.955 164.045 225.403 164.239C224.851 164.432 224.343 164.733 223.907 165.123C223.472 165.513 223.117 165.986 222.864 166.513L221.828 168.668L220.23 171.996L219.84 172.812L223.985 174.802L228.937 164.49L228.807 164.427Z" fill="#2F2E41"/>
<path d="M220.688 166.07L220.016 167.505L218.34 171.087L218.3 171.177C214.719 171.359 210.901 170.167 207.413 168.503C206.018 167.838 204.657 167.101 203.338 166.296C201.384 165.112 199.647 163.888 198.267 162.85C196.188 161.279 194.918 160.121 194.918 160.121C194.918 160.121 194.536 160.416 193.847 160.92C192.923 161.594 191.45 162.644 189.592 163.871C188.883 164.343 188.122 164.834 187.311 165.347C181.331 169.105 172.827 173.682 165.593 174.649C152.889 176.347 155.879 159.401 155.879 159.401L165.99 154.152L170.282 155.023L175.061 155.99L176.754 156.334C176.754 156.334 177.076 156.212 177.629 156.001C179.409 155.321 183.591 153.715 187.204 152.28C189.065 151.54 190.773 150.842 191.922 150.342C195.991 148.562 200.548 152.873 200.548 152.873L220.688 166.07Z" fill="#2F2E41"/>
<path d="M137.378 175.054C137.765 174.965 138.127 174.793 138.44 174.549C138.753 174.305 139.009 173.995 139.189 173.642C139.369 173.288 139.47 172.9 139.484 172.504C139.497 172.107 139.424 171.713 139.269 171.348L143.611 166.92L141.563 163.626L135.519 169.965C134.923 170.266 134.458 170.776 134.213 171.397C133.967 172.018 133.958 172.707 134.187 173.335C134.416 173.962 134.868 174.483 135.456 174.8C136.044 175.117 136.728 175.207 137.378 175.054H137.378Z" fill="#FFB8B8"/>
<path d="M158.454 117.156C154.715 117.156 151.685 120.185 151.685 123.922C151.685 125.788 152.44 127.477 153.661 128.701C153.661 130.757 153.567 141.042 155.44 141.042C156.238 141.042 157.203 131.345 160.729 130.297C163.348 129.363 165.223 126.861 165.223 123.922C165.223 120.185 162.193 117.156 158.454 117.156Z" fill="#FFB8B8"/>
<path d="M149.647 142.705L155.544 159.416L155.509 159.474C154.689 160.83 154.421 161.923 154.734 162.636C154.816 162.817 154.937 162.978 155.088 163.108C155.239 163.238 155.416 163.334 155.607 163.389L169.562 153.639L169.073 149.732L169.1 149.688C170.449 147.531 170.886 145.577 170.398 143.882C169.957 142.51 169.004 141.361 167.737 140.673L167.688 140.635L160.728 132.167L151.425 133.82L149.647 142.705Z" fill="#5193F1"/>
<path d="M140.68 172.036L136.73 167.176L146.253 151.463L150.693 137.745L150.83 137.789L150.693 137.745C150.935 136.995 151.336 136.307 151.867 135.725C152.398 135.143 153.048 134.682 153.773 134.373C154.498 134.064 155.28 133.913 156.068 133.932C156.856 133.95 157.63 134.137 158.34 134.481C159.049 134.824 159.676 135.315 160.18 135.921C160.683 136.527 161.051 137.234 161.258 137.994C161.465 138.754 161.506 139.549 161.38 140.327C161.253 141.104 160.961 141.845 160.524 142.5L152.373 154.707L140.68 172.036Z" fill="#5193F1"/>
<path d="M168.068 122.554H157.802L157.697 121.081L157.171 122.554H155.59L155.381 119.634L154.338 122.554H151.28V122.409C151.282 120.376 152.091 118.427 153.529 116.99C154.967 115.553 156.916 114.744 158.95 114.742H160.397C162.431 114.744 164.381 115.553 165.819 116.99C167.257 118.427 168.066 120.376 168.068 122.409V122.554Z" fill="#2F2E41"/>
<path d="M157.718 131.716C157.641 131.716 157.564 131.709 157.488 131.696L149.971 130.37V117.952H158.245L158.041 118.19C155.19 121.513 157.338 126.901 158.871 129.817C158.984 130.031 159.035 130.272 159.017 130.513C158.999 130.754 158.913 130.985 158.769 131.179C158.649 131.345 158.491 131.481 158.308 131.574C158.126 131.667 157.923 131.716 157.718 131.716Z" fill="#2F2E41"/>
<path d="M270.024 109.468V126.963H192.491L181.295 140.39L182.574 126.963H177.126V109.468H270.024Z" fill="#F0F0F0"/>
<path d="M209.36 121.358C211.112 121.358 212.532 119.938 212.532 118.187C212.532 116.436 211.112 115.017 209.36 115.017C207.609 115.017 206.188 116.436 206.188 118.187C206.188 119.938 207.609 121.358 209.36 121.358Z" fill="white"/>
<path d="M198.655 121.358C200.407 121.358 201.827 119.938 201.827 118.187C201.827 116.436 200.407 115.017 198.655 115.017C196.903 115.017 195.483 116.436 195.483 118.187C195.483 119.938 196.903 121.358 198.655 121.358Z" fill="white"/>
<path d="M187.95 121.358C189.701 121.358 191.122 119.938 191.122 118.187C191.122 116.436 189.701 115.017 187.95 115.017C186.198 115.017 184.778 116.436 184.778 118.187C184.778 119.938 186.198 121.358 187.95 121.358Z" fill="white"/>
<path d="M361.604 174.863H0.396495C0.291338 174.863 0.190488 174.821 0.11613 174.747C0.0417732 174.673 0 174.572 0 174.467C0 174.362 0.0417732 174.261 0.11613 174.186C0.190488 174.112 0.291338 174.07 0.396495 174.07H361.604C361.709 174.07 361.81 174.112 361.884 174.186C361.958 174.261 362 174.362 362 174.467C362 174.572 361.958 174.673 361.884 174.747C361.81 174.821 361.709 174.863 361.604 174.863Z" fill="#CACACA"/>
<path d="M162.786 126.938H159.847C159.945 127.73 160.115 127.852 160.916 128.081C161.499 128.24 162.484 127.796 162.786 126.938Z" fill="white" stroke="white" stroke-linecap="round" stroke-linejoin="round"/>
<path d="M64.0564 116.359L65.8194 112.54L83.7435 167.193L64.0564 116.359Z" fill="#0A0F2F"/>
<path d="M153.089 153.089L155.44 147.8V163.373L154.558 162.198L153.089 153.089Z" fill="#22549C"/>
<path d="M301.771 70.2271L298.244 73.1654L295.894 93.1463L301.771 70.2271Z" fill="#0A0A0E"/>
<path d="M162.198 123.999L161.904 124.881C162.15 125.09 162.441 125.229 162.492 125.468C162.492 125.762 161.904 126.056 161.904 126.056" stroke="#A85532" stroke-opacity="0.63"/>
<path d="M302.358 48.1895L300.889 48.7771C301.263 49.7959 301.451 50.1291 301.771 50.5401C302.26 49.8268 302.427 49.3439 302.358 48.1895Z" fill="white"/>
</g>
<defs>
<clipPath id="clip0_37_1225">
<rect width="362" height="175.127" fill="white"/>
</clipPath>
</defs>
</svg>
