<svg xmlns="http://www.w3.org/2000/svg" width="430.681" height="68.09" viewBox="0 0 430.681 68.09">
  <g id="Open_SGF_Logo" data-name="Open SGF Logo" transform="translate(-94.846 -113.948)">
    <path id="Path_13" data-name="Path 13" d="M-124.25.781a13.443,13.443,0,0,1-11.715-5.893q-4.118-5.893-4.118-16.756,0-10.579,4.153-16.614a13.369,13.369,0,0,1,11.68-6.035,13.369,13.369,0,0,1,11.68,6.035q4.153,6.035,4.153,16.614,0,10.863-4.118,16.756A13.443,13.443,0,0,1-124.25.781Zm0-4.331a8.753,8.753,0,0,0,7.917-4.757q2.8-4.757,2.8-13.561,0-8.449-2.84-13.383t-7.881-4.934q-5.041,0-7.881,4.934t-2.84,13.383q0,8.8,2.8,13.561A8.753,8.753,0,0,0-124.25-3.55Zm21.939-40.683h14.2q7.029,0,10.508,3.479a12.2,12.2,0,0,1,3.479,9.017,11.885,11.885,0,0,1-3.408,8.84q-3.408,3.372-10.224,3.372H-97.2V0h-5.112Zm13.987,20.306q4.686,0,6.887-2.024a7.284,7.284,0,0,0,2.2-5.644,7.676,7.676,0,0,0-2.272-5.716q-2.272-2.236-6.745-2.236H-97.2v15.62ZM-66.811,0V-44.3h27.122v4.4H-62.125v14.555h18.531V-20.8H-62.125V-4.4H-39.9V0ZM-31.95-44.233h4.828l18.6,32.8v-32.8h5.4v.5a1.854,1.854,0,0,0-.532.923,9.29,9.29,0,0,0-.107,1.7V0H-7.668L-27.193-34.79V0H-31.95ZM56.658-24.424q6.319,2.627,8.733,5.4a10.206,10.206,0,0,1,2.414,6.958,12.649,12.649,0,0,1-1.6,6.177,12.13,12.13,0,0,1-4.935,4.757A16.819,16.819,0,0,1,53.037.71Q44.446.71,39.192-4.9l2.556-4.473v-.071q.071,0,.071.036v.035A13.9,13.9,0,0,0,46.754-5.29a15.293,15.293,0,0,0,6.993,1.527,9.825,9.825,0,0,0,6.532-2.2,6.786,6.786,0,0,0,2.627-5.4A6.682,6.682,0,0,0,62.09-14.8a8.784,8.784,0,0,0-2.947-2.733,49.186,49.186,0,0,0-6.39-3.2q-6.532-2.556-9.336-5.822a10.943,10.943,0,0,1-2.8-7.313,9.779,9.779,0,0,1,3.621-7.952Q47.854-44.8,54.1-44.8a16.009,16.009,0,0,1,6.781,1.456,16.623,16.623,0,0,1,5.5,4.083l-2.769,3.692-.071.071a12.685,12.685,0,0,0-4.437-4.047,13.06,13.06,0,0,0-5.786-1.136,7.922,7.922,0,0,0-5.5,1.882,5.929,5.929,0,0,0-2.095,4.58,7.007,7.007,0,0,0,.888,3.586,9.306,9.306,0,0,0,3.231,2.982A44.85,44.85,0,0,0,56.658-24.424Zm6.106-10.934q0-.213.284-.071a1.245,1.245,0,0,0,.355.142L63.19-35l-.426-.284Zm.781-.142q.426.568.178.39a.874.874,0,0,0-.319-.177ZM42.529-9.656q0,.213-.284.071a1.245,1.245,0,0,0-.355-.142l.142-.284.5.284Zm-.781.213q-.426-.568.142-.284ZM103.66-21.229V-3.9A21.8,21.8,0,0,1,90.667.71a15.265,15.265,0,0,1-9.123-2.769,17.4,17.4,0,0,1-5.929-7.81,30.821,30.821,0,0,1-2.059-11.715q-.071-8.8,2.556-13.952a15.873,15.873,0,0,1,6.461-7.171,16.429,16.429,0,0,1,7.739-2.024,15.538,15.538,0,0,1,7.668,2.059,13.831,13.831,0,0,1,5.538,5.4l-3.479,2.769-.071.071A19.349,19.349,0,0,0,95.5-38.979a9.136,9.136,0,0,0-5.112-1.349,10.531,10.531,0,0,0-8.626,4.118q-3.3,4.118-3.3,13.561,0,9.088,3.23,14.023a10.172,10.172,0,0,0,8.981,4.934,16.168,16.168,0,0,0,4.473-.674,10.2,10.2,0,0,0,3.9-2.024V-16.9H91.022v-4.331ZM99.187-34.435q0-.426.639.071l-.355.355Zm.781,0q.355.5-.142.071ZM112.038,0V-44.3h25.489v4.331H117.008v13.916h16.543v4.331H117.008V0Z" transform="translate(388 168)" fill="#133654"/>
    <path id="Path_15" data-name="Path 15" d="M9.922,13.038A34,34,0,0,1-.164,11.808a9.78,9.78,0,0,1-5.7-4.346q-1.845-3.116-1.6-8.774l.328-8.2q0-5.166-1.8-7.175T-14.514-18.7h-1.64v-4.592H-14.6q3.854,0,5.74-2.091t1.886-6.683l-.164-5.9q0-14.268,14.924-14.268h5.166v4.674H6.232q-7.626,0-7.626,8.692l.164,5.74q0,9.02-7.134,12.136,6.97,2.3,6.97,12.71L-1.64-1.394Q-1.64,4.1.738,6.273T8.692,8.446h4.182v4.592Z" transform="translate(111 169)" fill="#133654"/>
    <path id="Path_14" data-name="Path 14" d="M-15.99,13.038V8.446h4.182q5.576,0,7.954-2.173t2.378-7.667l-.246-6.888q0-10.414,6.97-12.71-7.134-3.116-7.134-12.136l.164-5.74q0-8.692-7.626-8.692h-6.724v-4.674h5.166q14.924,0,14.924,14.268l-.164,5.9q0,4.592,1.886,6.683t5.74,2.091h1.558V-18.7H11.4q-3.772,0-5.576,2.009t-1.8,7.175l.328,8.2q.246,5.658-1.6,8.774a9.78,9.78,0,0,1-5.7,4.346,34,34,0,0,1-10.086,1.23Z" transform="translate(214 169)" fill="#133654"/>
    <g id="Asset_1" data-name="Asset 1" transform="translate(129.512 113.948)">
      <ellipse id="Ellipse_4" data-name="Ellipse 4" cx="28.5" cy="27" rx="28.5" ry="27" transform="translate(3.488 5.052)" fill="#56a4d8"/>
      <rect id="Rectangle_2" data-name="Rectangle 2" width="55.012" height="13.837" transform="translate(4.493 32.457)" fill="#fff"/>
      <path id="Path_7" data-name="Path 7" d="M31.963,0A31.963,31.963,0,1,0,63.926,31.963,31.963,31.963,0,0,0,31.963,0Zm0,59.132A27.169,27.169,0,1,1,59.132,31.963,27.169,27.169,0,0,1,31.963,59.132Z" transform="translate(0)" fill="#133654"/>
      <path id="Path_8" data-name="Path 8" d="M350.914,344.192l-11.03-3.476,3.379-6.484-6.442,3.355-3.448-10.937-3.456,10.97-6.5-3.386,3.386,6.5-10.97,3.457,10.939,3.448-3.355,6.438L329.9,350.7l3.474,11.035,3.466-11,6.421,3.344-3.344-6.422ZM333.36,342.9a9.868,9.868,0,0,1-4.73-1.2L326.177,337l4.714,2.456L333.4,331.5l2.5,7.93L340.566,337l-2.442,4.689A9.872,9.872,0,0,1,333.36,342.9Z" transform="translate(-301.409 -311.735)" fill="#133654"/>
      <path id="Path_9" data-name="Path 9" d="M354.962,367.189l1.852.964-.964-1.852.964-1.852-1.852.964-1.852-.964.964,1.852-.964,1.852Z" transform="translate(-336.986 -347.809)" fill="#fff"/>
      <path id="Path_10" data-name="Path 10" d="M644.509,150.237l.627-1.991,1.991-.627-1.991-.627L644.509,145l-.627,1.991-1.991.627,1.991.627Z" transform="translate(-612.58 -138.379)" fill="#fff"/>
      <path id="Path_11" data-name="Path 11" d="M964.27,368.153l1.852-.964,1.852.964-.964-1.852.964-1.852-1.852.964-1.852-.964.964,1.852Z" transform="translate(-920.24 -347.809)" fill="#fff"/>
      <path id="Path_12" data-name="Path 12" d="M552.158,440.76l-2.5-7.93-2.506,7.953-4.714-2.455,2.452,4.707a9.93,9.93,0,0,0,9.494-.02l2.442-4.689Z" transform="translate(-517.671 -413.066)" fill="#fff"/>
    </g>
  </g>
</svg>
