<svg xmlns="http://www.w3.org/2000/svg" width="531" height="82" viewBox="0 0 531 82">
    <g id="Open_SGF_Logo" data-name="Open SGF Logo" transform="translate(-89 -106)">
        <text id="_Open_Sgf" data-name="   Open Sgf" transform="translate(406 168)" fill="#133654" font-size="71" font-family="Helvetica"><tspan x="-213.035" y="0" xml:space="preserve">   OPEN SGF</tspan></text>
        <text id="_" data-name="{" transform="translate(105 169)" fill="#133654" font-size="82" font-family="Helvetica"><tspan x="-13.693" y="0">{</tspan></text>
        <text id="_2" data-name="}" transform="translate(218 169)" fill="#133654" font-size="82" font-family="Helvetica"><tspan x="-13.693" y="0">}</tspan></text>
        <g id="Asset_1" data-name="Asset 1" transform="translate(129.512 113.948)">
            <ellipse id="Ellipse_4" data-name="Ellipse 4" cx="28.5" cy="27" rx="28.5" ry="27" transform="translate(2.488 5.052)" fill="#56a4d8"/>
            <rect id="Rectangle_2" data-name="Rectangle 2" width="55.012" height="13.837" transform="translate(4.493 32.457)" fill="#fff"/>
            <path id="Path_7" data-name="Path 7" d="M31.963,0A31.963,31.963,0,1,0,63.926,31.963,31.963,31.963,0,0,0,31.963,0Zm0,59.132A27.169,27.169,0,1,1,59.132,31.963,27.169,27.169,0,0,1,31.963,59.132Z" transform="translate(0)" fill="#133654"/>
            <path id="Path_8" data-name="Path 8" d="M350.914,344.192l-11.03-3.476,3.379-6.484-6.442,3.355-3.448-10.937-3.456,10.97-6.5-3.386,3.386,6.5-10.97,3.457,10.939,3.448-3.355,6.438L329.9,350.7l3.474,11.035,3.466-11,6.421,3.344-3.344-6.422ZM333.36,342.9a9.868,9.868,0,0,1-4.73-1.2L326.177,337l4.714,2.456L333.4,331.5l2.5,7.93L340.566,337l-2.442,4.689A9.872,9.872,0,0,1,333.36,342.9Z" transform="translate(-301.409 -311.735)" fill="#133654"/>
            <path id="Path_9" data-name="Path 9" d="M354.962,367.189l1.852.964-.964-1.852.964-1.852-1.852.964-1.852-.964.964,1.852-.964,1.852Z" transform="translate(-336.986 -347.809)" fill="#fff"/>
            <path id="Path_10" data-name="Path 10" d="M644.509,150.237l.627-1.991,1.991-.627-1.991-.627L644.509,145l-.627,1.991-1.991.627,1.991.627Z" transform="translate(-612.58 -138.379)" fill="#fff"/>
            <path id="Path_11" data-name="Path 11" d="M964.27,368.153l1.852-.964,1.852.964-.964-1.852.964-1.852-1.852.964-1.852-.964.964,1.852Z" transform="translate(-920.24 -347.809)" fill="#fff"/>
            <path id="Path_12" data-name="Path 12" d="M552.158,440.76l-2.5-7.93-2.506,7.953-4.714-2.455,2.452,4.707a9.93,9.93,0,0,0,9.494-.02l2.442-4.689Z" transform="translate(-517.671 -413.066)" fill="#fff"/>
        </g>
    </g>
</svg>
