<?xml version="1.0" standalone="no"?>
<!DOCTYPE svg PUBLIC "-//W3C//DTD SVG 20010904//EN"
 "http://www.w3.org/TR/2001/REC-SVG-20010904/DTD/svg10.dtd">
<svg version="1.0" xmlns="http://www.w3.org/2000/svg"
 width="2100.000000pt" height="2100.000000pt" viewBox="0 0 2100.000000 2100.000000"
 preserveAspectRatio="xMidYMid meet">
<metadata>
Created by potrace 1.11, written by Peter Selinger 2001-2013
</metadata>
<g transform="translate(0.000000,2100.000000) scale(0.100000,-0.100000)"
fill="#000000" stroke="none">
<path d="M3945 15648 c-364 -15 -736 -105 -1055 -255 -279 -130 -551 -379
-711 -651 -119 -201 -229 -523 -274 -802 -32 -201 -34 -334 -18 -945 13 -473
14 -616 5 -720 -25 -275 -115 -562 -222 -709 -51 -70 -162 -175 -234 -223 -80
-54 -229 -115 -347 -143 -129 -30 -238 -40 -431 -40 l-178 0 0 -354 0 -354
243 -5 c266 -6 355 -19 524 -78 170 -59 315 -170 409 -310 72 -109 133 -279
172 -479 56 -288 57 -319 21 -1185 -22 -530 -29 -819 -26 -955 21 -740 241
-1209 712 -1522 198 -132 360 -193 720 -272 406 -89 687 -116 1273 -123 l452
-6 0 362 0 361 -458 0 c-484 0 -597 7 -801 51 -234 51 -402 116 -527 204 -87
62 -212 199 -262 288 -79 138 -156 388 -187 607 -20 143 -19 357 6 1002 22
591 19 728 -22 995 -42 277 -101 478 -200 678 -113 230 -252 403 -430 535 -87
65 -265 158 -353 186 l-56 18 110 57 c403 213 683 514 835 899 47 117 107 356
131 515 21 143 23 395 10 1040 -9 457 -5 544 36 734 54 254 156 453 300 586
131 122 297 211 487 263 l96 26 648 4 647 3 0 359 0 360 -442 2 c-244 2 -515
0 -603 -4z"/>
<path d="M16423 15653 l-423 -3 0 -359 0 -360 623 -4 c675 -4 696 -5 881 -64
378 -119 604 -407 688 -874 25 -139 28 -332 18 -1174 -6 -475 -1 -527 70 -810
80 -321 204 -554 410 -769 155 -162 316 -281 513 -382 l94 -48 -102 -41 c-455
-186 -763 -583 -890 -1150 -79 -353 -89 -552 -65 -1220 31 -818 27 -957 -34
-1210 -57 -234 -136 -410 -240 -533 -156 -184 -342 -284 -666 -356 -221 -49
-326 -56 -827 -56 l-463 0 0 -360 0 -360 338 0 c622 1 982 35 1435 136 323 72
496 138 676 258 403 269 610 632 686 1201 30 222 29 486 -4 1290 -32 793 -32
877 5 1095 86 507 263 756 621 874 167 55 250 67 506 73 l237 5 0 354 0 354
-165 0 c-267 0 -434 27 -620 99 -115 44 -197 96 -287 180 -155 145 -238 308
-303 596 -47 206 -50 310 -32 960 16 609 14 744 -18 943 -46 282 -156 607
-273 805 -147 247 -386 478 -642 620 -196 108 -546 216 -848 262 -104 15 -395
37 -447 33 -16 -2 -220 -4 -452 -5z"/>
<path d="M10295 15274 c-572 -29 -1096 -140 -1605 -339 -947 -370 -1769 -1037
-2332 -1895 -242 -368 -418 -729 -559 -1151 -420 -1257 -321 -2627 277 -3810
709 -1404 2048 -2392 3595 -2653 309 -53 418 -61 829 -61 411 0 519 8 830 61
1305 220 2465 955 3238 2054 258 368 504 860 645 1295 446 1371 274 2882 -468
4104 -784 1293 -2125 2171 -3600 2356 -258 32 -641 50 -850 39z m685 -768
c306 -39 587 -101 855 -191 156 -52 339 -124 333 -131 -2 -1 -51 15 -110 36
-645 238 -1427 322 -2145 230 -356 -46 -754 -145 -1058 -265 -49 -19 -90 -33
-92 -31 -2 2 47 25 109 51 395 167 822 271 1288 315 144 13 673 4 820 -14z
m-430 -414 l46 -146 159 -52 c88 -28 153 -54 145 -57 -8 -3 -76 -25 -150 -48
-74 -23 -140 -47 -147 -53 -6 -6 -32 -77 -58 -158 -25 -82 -48 -148 -50 -148
-2 0 -25 66 -51 148 -25 81 -51 152 -57 158 -7 6 -73 30 -147 53 -74 23 -142
45 -150 48 -8 3 57 29 144 57 l159 51 44 140 c55 176 52 169 61 161 4 -4 27
-73 52 -154z m-2355 -1468 l140 -71 139 73 c77 41 142 72 144 69 2 -2 -29 -68
-69 -148 l-72 -143 71 -136 c40 -75 72 -141 72 -146 0 -6 -65 23 -145 65
l-145 75 -145 -76 c-80 -42 -145 -73 -145 -69 0 5 32 72 72 150 l73 141 -72
140 c-40 76 -73 142 -73 146 0 9 -12 15 155 -70z m4606 3 c78 40 144 71 147
69 2 -3 -29 -68 -69 -146 l-74 -141 73 -142 c39 -79 72 -146 72 -150 0 -4 -65
27 -145 69 l-145 76 -145 -75 c-80 -42 -145 -71 -145 -65 0 6 32 72 72 146
l71 136 -71 142 c-40 78 -72 145 -72 148 0 4 65 -26 145 -67 l144 -74 142 74z
m-2095 -1052 c102 -324 186 -590 187 -591 1 -1 161 81 356 182 194 102 355
183 357 181 3 -2 -78 -163 -180 -358 l-184 -354 -77 -41 c-287 -152 -696 -195
-1039 -108 -114 28 -290 95 -336 127 -25 17 -71 97 -216 376 -102 194 -183
356 -180 358 2 2 164 -80 361 -182 196 -103 358 -185 359 -183 2 1 87 271 190
598 221 702 196 630 207 605 5 -11 93 -285 195 -610z m-2083 -1602 c466 -146
847 -269 847 -273 0 -4 -99 -198 -221 -431 -122 -233 -236 -454 -255 -492
l-34 -67 87 44 c49 24 270 139 493 256 223 116 409 212 414 213 4 1 85 -243
180 -543 95 -300 176 -555 180 -567 l7 -23 -1700 0 -1701 0 -60 103 c-79 133
-205 390 -268 547 -174 432 -278 905 -299 1358 l-6 142 744 0 744 0 848 -267z
m6087 198 c0 -100 -18 -304 -41 -466 -75 -529 -271 -1084 -541 -1532 l-49 -83
-1699 0 -1698 0 13 43 c70 230 339 1074 344 1079 4 4 227 -107 496 -247 269
-140 490 -253 491 -252 2 1 -112 223 -252 492 -140 269 -251 492 -247 496 5 4
386 127 848 273 l840 265 748 0 747 1 0 -69z m-5113 -3967 c-3 -3 -12 -4 -19
-1 -8 3 -5 6 6 6 11 1 17 -2 13 -5z m46 -11 c-7 -2 -19 -2 -25 0 -7 3 -2 5 12
5 14 0 19 -2 13 -5z m1734 1 c-3 -3 -12 -4 -19 -1 -8 3 -5 6 6 6 11 1 17 -2
13 -5z m-1535 -30 c422 -63 941 -59 1413 13 22 3 38 3 35 0 -10 -11 -350 -56
-502 -66 -294 -22 -585 -10 -893 35 -163 24 -304 51 -195 38 25 -3 89 -12 142
-20z m1491 19 c-7 -2 -19 -2 -25 0 -7 3 -2 5 12 5 14 0 19 -2 13 -5z"/>
</g>
</svg>
